<?xml version="1.0" encoding="iso-8859-1"?>
<!-- Uploaded to: SVG Repo, www.svgrepo.com, Generator: SVG Repo Mixer Tools -->
<svg version="1.1" id="Layer_1" xmlns="http://www.w3.org/2000/svg" xmlns:xlink="http://www.w3.org/1999/xlink" 
	 viewBox="0 0 512 512" xml:space="preserve">
<path d="M473.648,396.8V102.4c0-7.04-5.76-12.8-12.8-12.8H51.328c-7.04,0-12.8,5.76-12.8,12.8v294.4
	C38.528,396.8,474.712,396.8,473.648,396.8z"/>
<rect x="57.736" y="106.664" style="fill:#F2B851;" width="396.712" height="290.16"/>
<rect y="396.8" style="fill:#E2E2E2;" width="512" height="8.536"/>
<polygon style="fill:#C9C9C9;" points="486.4,422.4 25.6,422.4 0,405.336 512,405.336 "/>
<g style="opacity:0.7;">
	<path style="fill:#FFFFFF;" d="M299.04,396.8h-86.08c0.816,4.792,4.824,8.536,9.832,8.536H289.2
		C294.216,405.336,298.224,401.592,299.04,396.8z"/>
</g>
<g>
	<path style="fill:#FFFFFF;" d="M124.864,253.24l90.168-41.888v19.912l-68.192,29.864v0.376l68.192,29.864v19.912l-90.168-41.888
		V253.24z"/>
	<path style="fill:#FFFFFF;" d="M228.952,318.8l40.2-136.2h18.976L247.92,318.8H228.952z"/>
	<path style="fill:#FFFFFF;" d="M389.2,269.96l-90.168,41.328v-19.912l69.696-29.864v-0.376l-69.696-29.864V211.36l90.168,41.328
		L389.2,269.96L389.2,269.96z"/>
</g>
</svg>